<svg width="738" height="172" viewBox="0 0 738 172" fill="none" xmlns="http://www.w3.org/2000/svg">
<path d="M66.6957 153.326V164.99C58.9198 169.231 49.9422 171.352 39.7629 171.352C31.4922 171.352 24.4763 169.691 18.7151 166.368C12.9539 163.046 8.3944 158.469 5.03664 152.637C1.67888 146.805 0 140.496 0 133.71C0 122.929 3.83491 113.863 11.5047 106.512C19.2099 99.1599 28.7 95.4841 39.975 95.4841C47.7509 95.4841 56.3927 97.5164 65.9004 101.581V112.98C57.241 108.031 48.7759 105.557 40.5052 105.557C32.0224 105.557 24.9711 108.244 19.3513 113.616C13.7668 118.953 10.9746 125.651 10.9746 133.71C10.9746 141.839 13.7315 148.519 19.2453 153.75C24.7591 158.981 31.8103 161.597 40.3991 161.597C49.3767 161.597 58.1422 158.84 66.6957 153.326Z" fill="black"/>
<path d="M101.74 121.622C109.163 121.622 115.33 124.025 120.243 128.832C125.156 133.603 127.613 139.612 127.613 146.858C127.613 153.891 125.121 159.741 120.137 164.406C115.153 169.037 108.88 171.352 101.316 171.352C93.9996 171.352 87.8849 169.001 82.972 164.3C78.0591 159.564 75.6026 153.662 75.6026 146.593C75.6026 139.453 78.0767 133.515 83.025 128.779C88.0086 124.007 94.247 121.622 101.74 121.622ZM101.21 130.316C96.5797 130.316 92.7802 131.836 89.8112 134.876C86.8422 137.916 85.3578 141.786 85.3578 146.487C85.3578 151.152 86.8776 154.969 89.9172 157.938C92.9569 160.872 96.8625 162.339 101.634 162.339C106.37 162.339 110.241 160.854 113.245 157.885C116.284 154.881 117.804 151.046 117.804 146.381C117.804 141.75 116.231 137.916 113.086 134.876C109.94 131.836 105.981 130.316 101.21 130.316Z" fill="black"/>
<rect x="36.4758" width="701.524" height="93.3103" fill="black"/>
<path d="M97.2336 11.1379C99.7078 11.1379 102.323 11.3676 105.08 11.8271C107.872 12.2512 110.7 12.8168 113.563 13.5237V45.7051C111.831 43.5844 110.152 42.0823 108.526 41.1987C106.9 40.315 105.133 39.8732 103.225 39.8732C100.75 39.8732 98.7535 40.6508 97.2336 42.206C95.7491 43.7258 95.0069 45.9172 95.0069 48.7801H113.563V62.2465H95.0069V93.3146H62.1892V62.2465H55.1379V48.7801H62.1892V48.409C62.1892 36.6745 65.3703 27.5379 71.7323 20.9991C78.0944 14.4249 86.5948 11.1379 97.2336 11.1379Z" fill="white"/>
<path d="M153.008 67.9193C155.234 67.9193 157.002 67.2655 158.309 65.9577C159.617 64.6499 160.271 62.8827 160.271 60.656C160.271 58.4293 159.6 56.662 158.256 55.3543C156.949 54.0112 155.181 53.3396 152.955 53.3396C151.894 53.3396 150.922 53.5163 150.039 53.8698C149.191 54.2232 148.448 54.7357 147.812 55.4073C147.211 56.0435 146.734 56.8211 146.381 57.74C146.027 58.6237 145.85 59.5956 145.85 60.656C145.85 62.812 146.504 64.5616 147.812 65.9047C149.155 67.2478 150.887 67.9193 153.008 67.9193ZM153.008 28.1564C158.097 28.1564 162.781 28.987 167.057 30.6482C171.369 32.2741 175.063 34.5538 178.138 37.4874C181.248 40.4211 183.669 43.9202 185.401 47.9849C187.133 52.0495 187.999 56.4853 187.999 61.2922C187.999 66.0637 187.133 70.4642 185.401 74.4935C183.705 78.5228 181.319 82.0043 178.244 84.9379C175.169 87.8715 171.475 90.1689 167.163 91.8301C162.887 93.456 158.168 94.2689 153.008 94.2689C146.504 94.2689 140.566 92.9081 135.194 90.1866C129.892 87.465 125.722 83.6125 122.682 78.6288C119.678 73.6099 118.175 67.831 118.175 61.2922C118.175 54.8594 119.642 49.1159 122.576 44.0616C125.545 39.0073 129.663 35.1017 134.929 32.3448C140.195 29.5525 146.222 28.1564 153.008 28.1564Z" fill="white"/>
<path d="M227.921 29.4818V64.2612C227.921 69.8103 229.9 72.5849 233.859 72.5849C235.202 72.5849 236.369 72.2844 237.358 71.6836C238.383 71.0827 239.214 70.2521 239.85 69.1918V29.4818H272.668V93.3146H241.281V82.128H241.069C237.818 86.228 234.495 89.2146 231.102 91.0879C227.78 92.9258 223.821 93.8448 219.226 93.8448C212.475 93.8448 207.068 91.8301 203.003 87.8008C198.974 83.7715 196.959 78.3107 196.959 71.4185V29.4818H227.921Z" fill="white"/>
<path d="M360.888 93.3146H329.926V55.7784C329.926 53.4456 329.449 51.59 328.495 50.2116C327.541 48.8331 326.003 48.1439 323.882 48.1439C322.999 48.1439 322.009 48.3383 320.913 48.7271C319.818 49.1159 318.846 49.6107 317.997 50.2116V93.3146H285.233V29.4818H317.997V37.4874C321.037 34.4124 324.112 32.2211 327.222 30.9133C330.368 29.6056 333.885 28.9517 337.773 28.9517C345.443 28.9517 351.204 31.09 355.056 35.3668C358.944 39.6435 360.888 45.5637 360.888 53.1275V93.3146Z" fill="white"/>
<path d="M402.136 62.2465C402.136 65.0387 402.913 67.0534 404.469 68.2905C406.024 69.4922 408.516 70.0931 411.944 70.0931H414.383V55.7254C413.676 55.2306 412.828 54.8418 411.838 54.559C410.848 54.2762 409.876 54.1349 408.922 54.1349C406.943 54.1349 405.317 54.9124 404.044 56.4676C402.772 58.0228 402.136 59.9491 402.136 62.2465ZM370.644 60.8681C370.644 54.9655 372.004 49.5577 374.726 44.6448C377.483 39.7318 381.247 35.8969 386.019 33.14C390.825 30.3478 396.162 28.9517 402.03 28.9517C404.539 28.9517 406.996 29.1991 409.399 29.6939C411.697 30.1534 413.358 30.6659 414.383 31.2314V12.4103H447.2V93.3146H407.65C400.333 93.3146 393.865 91.9715 388.245 89.2853C382.625 86.5991 378.278 82.7288 375.203 77.6745C372.163 72.6202 370.644 67.0181 370.644 60.8681Z" fill="white"/>
<path d="M490.728 28.1564C497.302 28.1564 503.222 29.5879 508.488 32.4508C513.79 35.2784 517.89 39.4137 520.788 44.8568C523.722 50.3353 525.189 56.5383 525.189 63.4659V65.5336H491.682C492.247 67.1241 493.043 68.5732 494.068 69.881C495.093 71.1534 496.294 72.2491 497.673 73.1681C499.051 74.0517 500.553 74.7409 502.179 75.2357C503.841 75.6952 505.608 75.925 507.481 75.925C509.213 75.925 510.927 75.7659 512.624 75.4478C514.32 75.1297 515.911 74.6879 517.395 74.1224C518.915 73.5215 520.329 72.7969 521.637 71.9487C522.944 71.065 524.111 70.0754 525.136 68.9797V80.1663C521.354 85.0793 516.9 88.6668 511.775 90.9288C506.65 93.1556 500.783 94.2689 494.174 94.2689C490.498 94.3043 487.016 93.9685 483.729 93.2616C480.478 92.5193 477.473 91.459 474.716 90.0806C471.959 88.7021 469.485 87.0232 467.294 85.0439C465.138 83.0293 463.3 80.7849 461.78 78.3107C460.296 75.8012 459.165 73.062 458.387 70.0931C457.609 67.1241 457.238 63.9784 457.274 60.656C457.274 54.3999 458.67 48.8155 461.462 43.9025C464.29 38.9189 468.231 35.0663 473.285 32.3448C478.41 29.5525 484.224 28.1564 490.728 28.1564ZM489.72 54.3469H505.148C505.042 51.2366 504.265 48.7801 502.816 46.9775C501.402 45.1396 499.511 44.2206 497.143 44.2206C495.022 44.2206 493.255 45.1219 491.841 46.9245C490.427 48.6564 489.72 50.9008 489.72 53.6577V54.3469Z" fill="white"/>
<path d="M595.49 44.3267C595.49 49.0275 594.058 52.8094 591.195 55.6724C588.368 58.5353 584.727 59.9668 580.274 59.9668C575.219 59.9668 570.801 58.0228 567.019 54.1349C565.323 55.6193 564.086 57.6163 563.308 60.1258C562.531 62.5999 562.142 65.5512 562.142 68.9797V93.3146H529.377V29.4818H562.142V43.0543H562.354C564.369 38.4241 566.896 34.9249 569.935 32.5568C572.975 30.1534 576.421 28.9517 580.274 28.9517C584.621 28.9517 588.244 30.4008 591.142 33.2991C594.041 36.162 595.49 39.8379 595.49 44.3267Z" fill="white"/>
<path d="M640.448 20.3629C640.448 22.9077 639.529 25.0991 637.691 26.937C635.889 28.7749 633.733 29.6939 631.223 29.6939C628.678 29.6939 626.487 28.7749 624.649 26.937C622.811 25.0991 621.892 22.9077 621.892 20.3629C621.892 17.8534 622.811 15.6974 624.649 13.8948C626.487 12.0568 628.678 11.1379 631.223 11.1379C633.733 11.1379 635.889 12.0392 637.691 13.8418C639.529 15.5737 640.448 17.7474 640.448 20.3629ZM607.896 29.4818C609.91 30.6482 612.384 31.5495 615.318 32.1857C618.252 32.8219 621.38 33.14 624.702 33.14C627.812 33.14 630.746 32.8396 633.503 32.2387C636.26 31.6025 638.646 30.6836 640.66 29.4818V93.3146H607.896V29.4818Z" fill="white"/>
<path d="M684.241 28.1564C690.815 28.1564 696.735 29.5879 702.001 32.4508C707.303 35.2784 711.403 39.4137 714.301 44.8568C717.235 50.3353 718.702 56.5383 718.702 63.4659V65.5336H685.195C685.76 67.1241 686.556 68.5732 687.581 69.881C688.606 71.1534 689.807 72.2491 691.186 73.1681C692.564 74.0517 694.066 74.7409 695.692 75.2357C697.353 75.6952 699.121 75.925 700.994 75.925C702.726 75.925 704.44 75.7659 706.137 75.4478C707.833 75.1297 709.424 74.6879 710.908 74.1224C712.428 73.5215 713.842 72.7969 715.15 71.9487C716.457 71.065 717.624 70.0754 718.649 68.9797V80.1663C714.867 85.0793 710.413 88.6668 705.288 90.9288C700.163 93.1556 694.296 94.2689 687.687 94.2689C684.011 94.3043 680.529 93.9685 677.242 93.2616C673.991 92.5193 670.986 91.459 668.229 90.0806C665.472 88.7021 662.998 87.0232 660.807 85.0439C658.651 83.0293 656.813 80.7849 655.293 78.3107C653.809 75.8012 652.678 73.062 651.9 70.0931C651.122 67.1241 650.751 63.9784 650.787 60.656C650.787 54.3999 652.183 48.8155 654.975 43.9025C657.803 38.9189 661.744 35.0663 666.798 32.3448C671.923 29.5525 677.737 28.1564 684.241 28.1564ZM683.233 54.3469H698.661C698.555 51.2366 697.778 48.7801 696.328 46.9775C694.915 45.1396 693.024 44.2206 690.656 44.2206C688.535 44.2206 686.768 45.1219 685.354 46.9245C683.94 48.6564 683.233 50.9008 683.233 53.6577V54.3469Z" fill="white"/>
<path d="M640.533 20.4689C640.533 25.6223 636.355 29.7999 631.202 29.7999C626.049 29.7999 621.871 25.6223 621.871 20.4689C621.871 15.3155 626.049 11.1379 631.202 11.1379C636.355 11.1379 640.533 15.3155 640.533 20.4689Z" fill="#4EE7FF"/>
</svg>
