<svg xmlns="http://www.w3.org/2000/svg" xmlns:xlink="http://www.w3.org/1999/xlink" width="100" height="99"><defs><path id="a" d="M0 100h99.596V.404H0z"/></defs><g fill="none" fill-rule="evenodd"><path fill="#2B3844" d="M0 98.387h100V0H0z"/><path fill="#FACE1B" d="M39.894 16.169h4.702c1.045 0 1.825-.243 2.338-.73.514-.486.77-1.162.77-2.027 0-.865-.261-1.55-.783-2.054-.523-.504-1.298-.757-2.325-.757h-4.702v5.568zm0 3.027v7.567h-3.27V7.574h7.945c2.18 0 3.798.536 4.852 1.608 1.054 1.073 1.58 2.483 1.58 4.23 0 1.73-.54 3.127-1.62 4.19-1.082 1.063-2.686 1.594-4.812 1.594h-4.675z"/><mask id="b" fill="#fff"><use xlink:href="#a"/></mask><path fill="#FACE1B" mask="url(#b)" d="M53.191 26.764h3.27V7.575h-3.27zm5.945-9.622c0-2.937.896-5.334 2.69-7.19C63.617 8.098 65.92 7.17 68.73 7.17c2.396 0 4.432.667 6.108 2 1.675 1.334 2.711 3.135 3.108 5.405H74.46c-.324-1.333-.995-2.378-2.013-3.135-1.018-.756-2.257-1.135-3.716-1.135-1.91 0-3.41.617-4.5 1.852-1.09 1.234-1.635 2.896-1.635 4.986s.544 3.757 1.635 5c1.09 1.243 2.59 1.865 4.5 1.865 1.46 0 2.698-.379 3.716-1.135 1.018-.757 1.69-1.802 2.013-3.135h3.487c-.397 2.27-1.433 4.071-3.108 5.405-1.676 1.334-3.712 2-6.108 2-2.811 0-5.113-.928-6.906-2.784-1.793-1.855-2.689-4.26-2.689-7.216m32.703-9.569v3.108h-5.567v16.082h-3.271V10.682h-5.567V7.574zM53.353 47.196c-1.496 1.424-3.406 2.135-5.73 2.135-2.324 0-4.235-.711-5.73-2.135-1.495-1.423-2.243-3.477-2.243-6.162V29.736h3.27V41.17c0 1.586.4 2.838 1.203 3.757.802.918 1.968 1.378 3.5 1.378 1.53 0 2.698-.46 3.5-1.378.801-.92 1.203-2.171 1.203-3.757V29.736h3.27v11.298c0 2.685-.748 4.739-2.243 6.162m16.486-9.622c.504-.504.756-1.18.756-2.027 0-.846-.252-1.522-.756-2.027-.505-.504-1.253-.756-2.244-.756h-5.189v5.567h5.19c.99 0 1.738-.252 2.243-.757zm4.702 11.352h-3.837l-3.892-7.568h-4.406v7.568h-3.27v-19.19h8.432c2.054 0 3.622.532 4.703 1.595 1.081 1.063 1.622 2.469 1.622 4.216 0 1.316-.315 2.446-.946 3.392-.631.946-1.568 1.617-2.811 2.014l4.405 7.973z"/><path fill="#FACE1B" d="M83.403 33.791l-.041.003L80.2 42.25h6.361l-3.158-8.459zm-5.7 15.135h-3.459l7.433-19.19h3.486l7.46 19.19h-3.568l-1.383-3.703h-8.584l-1.385 3.703z" mask="url(#b)"/><path fill="#F0F0F1" d="M21.46 61.466c0-2.936.897-5.333 2.69-7.189 1.793-1.856 4.095-2.784 6.905-2.784 2.397 0 4.433.667 6.109 2 1.675 1.334 2.71 3.135 3.108 5.406h-3.487c-.324-1.334-.995-2.379-2.013-3.135-1.019-.757-2.257-1.136-3.717-1.136-1.91 0-3.41.618-4.5 1.852-1.09 1.234-1.635 2.896-1.635 4.986s.545 3.757 1.635 5c1.09 1.244 2.59 1.865 4.5 1.865 1.46 0 2.698-.378 3.717-1.135 1.018-.757 1.689-1.802 2.013-3.135h3.487c-.397 2.27-1.433 4.072-3.108 5.405-1.676 1.334-3.712 2-6.109 2-2.81 0-5.112-.928-6.905-2.783-1.793-1.856-2.69-4.262-2.69-7.217m32-1.73c.505-.504.757-1.18.757-2.027 0-.846-.252-1.522-.756-2.027-.505-.504-1.253-.756-2.244-.756h-5.189v5.567h5.19c.99 0 1.738-.252 2.243-.757zm4.703 11.352h-3.837l-3.892-7.568h-4.406v7.568h-3.27v-19.19h8.432c2.054 0 3.622.532 4.703 1.595 1.081 1.063 1.622 2.469 1.622 4.216 0 1.316-.315 2.446-.946 3.392-.631.946-1.568 1.618-2.811 2.014l4.405 7.973zm15.459-3.027v3.027H60.136V51.899h13.486v3.027H63.406v4.919h9.757v3.027h-9.757v5.189zm9.781-12.107l-.041.002-3.162 8.456h6.361l-3.158-8.458zm-5.7 15.134h-3.459l7.433-19.19h3.486l7.46 19.19h-3.568l-1.383-3.703h-8.584l-1.385 3.703zm-32.809 2.973v3.108h-5.568V93.25h-3.27V77.169h-5.568v-3.108zm1.648 19.189h3.27V74.061h-3.27zm19.54-19.189h3.595L62.244 93.25h-3.405l-7.406-19.189h3.703l5.446 14.86h.054zm18.703 16.162v3.027H71.298V74.061h13.487v3.027H74.568v4.919h9.757v3.027h-9.757v5.189zm5.54 2.635c-.415.405-.946.608-1.595.608-.648 0-1.185-.203-1.608-.608-.423-.405-.635-.932-.635-1.581 0-.63.212-1.157.635-1.581.423-.423.96-.635 1.608-.635.63 0 1.158.212 1.581.635.424.424.635.95.635 1.581 0 .649-.207 1.176-.621 1.581" mask="url(#b)"/></g></svg>